<?xml version="1.0" standalone="no"?>
<!DOCTYPE svg PUBLIC "-//W3C//DTD SVG 20010904//EN"
 "http://www.w3.org/TR/2001/REC-SVG-20010904/DTD/svg10.dtd">
<svg version="1.0" xmlns="http://www.w3.org/2000/svg"
 width="300.000000pt" height="113.000000pt" viewBox="0 0 300.000000 113.000000"
 preserveAspectRatio="xMidYMid meet">
<metadata>
Created by potrace 1.10, written by Peter Selinger 2001-2011
</metadata>
<g transform="translate(0.000000,113.000000) scale(0.100000,-0.100000)"
fill="#000000" stroke="none">
<path d="M513 1118 c-28 -36 -503 -918 -503 -934 0 -18 1 -18 19 1 11 11 41
58 67 105 25 47 59 108 74 135 248 448 370 678 370 695 0 14 -15 13 -27 -2z"/>
<path d="M840 1120 c0 -5 -29 -61 -65 -125 -36 -64 -65 -119 -65 -121 0 -2
-10 -21 -23 -42 -13 -20 -52 -91 -87 -157 -34 -66 -83 -155 -107 -197 -57
-100 -67 -135 -48 -165 9 -13 12 -23 8 -24 -5 0 1 -4 12 -9 35 -15 158 -12
182 5 13 9 39 46 60 83 21 37 51 80 68 96 22 21 24 25 8 17 -34 -17 -36 -13
-10 22 14 17 51 79 83 137 31 58 64 112 71 121 12 14 37 17 141 18 70 1 132
-2 139 -7 9 -5 5 -22 -14 -64 -23 -51 -31 -59 -82 -82 -46 -22 -42 -27 7 -9
27 11 18 -10 -128 -272 -9 -16 -45 -82 -80 -145 -39 -72 -78 -129 -104 -152
-41 -37 -41 -37 -14 -38 18 0 38 11 60 33 24 25 404 700 426 758 2 5 -79 9
-181 9 l-184 0 -142 -254 -141 -253 -73 1 c-75 2 -97 9 -97 30 0 6 96 188 214
404 195 359 211 392 190 392 -13 0 -24 -4 -24 -10z"/>
<path d="M2369 1118 c0 -7 -33 -69 -72 -138 l-73 -125 -176 -5 c-153 -4 -179
-7 -196 -24 -12 -10 -45 -22 -74 -26 l-53 -8 43 -1 44 -1 -53 -97 c-29 -54
-65 -123 -82 -153 -16 -30 -44 -82 -62 -115 -18 -33 -48 -89 -68 -125 -19 -36
-53 -96 -74 -135 -53 -96 -77 -154 -69 -162 3 -4 13 0 20 8 8 8 110 191 227
406 l212 393 189 2 190 3 88 158 c83 148 87 157 64 157 -13 0 -24 -6 -25 -12z"/>
<path d="M2477 1088 c-63 -111 -148 -270 -145 -272 1 -1 34 -7 72 -13 185 -31
252 -137 174 -273 -82 -143 -288 -285 -573 -395 -100 -39 -299 -100 -400 -124
-52 -12 213 -4 340 10 393 45 746 216 934 452 88 111 105 155 108 277 2 95 0
110 -23 157 -42 88 -151 163 -286 199 -60 16 -112 18 -104 5 6 -8 50 -20 108
-27 39 -5 140 -58 182 -95 19 -16 49 -58 66 -91 54 -109 37 -241 -47 -367 -49
-75 -162 -184 -256 -249 -83 -57 -263 -147 -312 -155 -16 -3 -75 -16 -130 -30
-103 -25 -283 -52 -291 -44 -3 2 30 17 73 32 100 35 247 104 343 160 78 46
215 152 219 170 1 6 17 26 36 45 64 66 91 166 64 237 -22 58 -95 113 -172 128
-56 11 -67 16 -67 28 0 7 23 53 51 102 72 127 92 175 74 175 -8 0 -25 -19 -38
-42z"/>
<path d="M1492 1099 c-23 -12 -56 -38 -72 -58 -29 -34 -120 -200 -120 -218 0
-4 36 -7 79 -5 l79 3 -127 -243 c-317 -606 -303 -578 -282 -578 20 0 40 34
266 475 115 223 128 243 169 261 l31 14 -38 -6 -38 -6 21 35 21 36 -20 20
c-14 14 -34 21 -61 21 -49 0 -49 7 -9 85 39 75 72 110 129 141 74 38 79 44 45
44 -16 0 -49 -10 -73 -21z"/>
<path d="M1640 780 c-34 -7 -34 -7 -5 -8 17 0 44 4 60 8 27 7 27 8 5 8 -14 -1
-41 -4 -60 -8z"/>
<path d="M14 105 c4 -28 15 -48 36 -67 33 -30 84 -39 74 -13 -4 8 -10 13 -14
10 -7 -4 -33 22 -83 87 l-18 23 5 -40z"/>
</g>
</svg>
